<svg xmlns="http://www.w3.org/2000/svg" width="753.828" height="297.699" viewBox="0 0 753.828 297.699"><g transform="translate(-10206.086 -7763.151)"><path d="M1053.024,643.623c-1-.256-2.413.771-2.94-.974-.257-.848-.515-.217-.771.035-1.691,1.658-3.8,1.635-5.88,1.263a4.4,4.4,0,0,1-3.937-3.979,4.81,4.81,0,0,1,2.874-5.34,14.781,14.781,0,0,1,5.115-1.122c.823-.074,2.235.819,2.444-.806.182-1.406.138-2.892-1.375-3.754a3.683,3.683,0,0,0-5.112,1.573c-.3.618-.176,1.5-1.288,1.569-1.484.095-2.258-.147-1.64-1.884.977-2.74,3.874-4.17,7.712-3.693,2.9.36,4.2,1.884,4.417,5.1.237,3.5-.318,7.024.381,10.5Zm-5.3-8.07c-3.4.079-5.255,1.332-5.244,3.523s1.489,2.852,3.332,2.893c2.561.058,4.132-1.995,4.2-4.907C1050.065,634.976,1048.666,635.688,1047.728,635.553Z" transform="translate(9906.89 7346.32)" fill="#626263"/><path d="M680.334,531.159c-6.977.028-13.189-.676-19.1-3.067-10.315-4.169-16.142-13.218-15.759-24.21.059-1.679.5-2.382,2.308-2.3,3.01.142,6.03.065,9.046.025,1.076-.014,1.607.158,1.678,1.476.529,9.9,3.74,13.647,13.481,15.638a37.584,37.584,0,0,0,18.877-.761c7.831-2.425,11.239-7.746,9.907-15.083a10.129,10.129,0,0,0-4.859-6.979c-5.55-3.532-11.858-4.933-18.1-6.462-6.1-1.5-12.211-2.945-17.741-6.05-5.391-3.027-10.11-6.873-11.608-13.182-2.907-12.248,1.319-23.5,14.238-28.515a46.182,46.182,0,0,1,34.341.058c9.571,3.725,14.507,11.439,14.611,21.647.016,1.542-.417,2.046-1.968,1.992-3.1-.107-6.2-.028-9.3-.036-.814,0-1.537.171-1.706-1.16-1.071-8.442-3.772-11.432-12.128-13.183A32.614,32.614,0,0,0,668,452.287c-6.036,2.293-8.719,7.571-7.062,13.172a9.729,9.729,0,0,0,4.733,5.6c5.46,3.3,11.594,4.713,17.664,6.25,5.843,1.479,11.714,2.861,17.117,5.618,6.851,3.5,12.236,8.291,13.27,16.465,2.047,16.192-6.493,27.786-22.555,30.754A53.292,53.292,0,0,1,680.334,531.159Z" transform="translate(10008.748 7394.926)" fill="#626263"/><path d="M868.22,530.413c-6.641,0-6.636,0-9.021-6.183-1.5-3.9-3.076-7.771-4.511-11.695a2.128,2.128,0,0,0-2.365-1.636q-19.725.065-39.449-.007a2.264,2.264,0,0,0-2.52,1.767c-1.933,5.254-4.058,10.438-5.939,15.71a2.636,2.636,0,0,1-3.091,2.081,67.53,67.53,0,0,0-7.785,0c-2.055.126-2.39-.349-1.615-2.3,5.521-13.9,10.946-27.842,16.395-41.771,5.693-14.552,11.413-29.094,17.022-43.679.652-1.7,1.457-2.284,3.242-2.2,3.26.146,6.532.1,9.8.013a2.422,2.422,0,0,1,2.765,1.789q16.759,43.11,33.652,86.167c.6,1.527.49,2.1-1.3,1.972C871.745,530.316,869.98,530.413,868.22,530.413Zm-35.433-31.269c4.86,0,9.722-.038,14.582.022,1.55.019,2.129-.176,1.445-1.942-5.1-13.177-10.108-26.391-15.158-39.589-.219-.573-.2-1.49-1.1-1.41-.691.061-.7.882-.9,1.384-5.093,13.18-10.122,26.386-15.262,39.548-.761,1.949,0,2.026,1.561,2.008C822.9,499.11,827.844,499.144,832.788,499.144Z" transform="translate(9970.982 7394.389)" fill="#626263"/><path d="M972.307,484.995c.082,5.559-.136,10.9.969,16.222,3.069,14.772,14.317,19.173,25.4,18.229,12.559-1.07,19.5-8.706,19.952-21.469.067-1.9.6-2.446,2.45-2.339,2.672.155,5.363.107,8.042.013,1.467-.051,2.039.3,2.03,1.932-.1,19.438-13.731,33.281-33.16,33.653-8.472.162-16.54-1.2-23.635-6.167a32.8,32.8,0,0,1-13.82-22.505c-1.913-12.047-2.189-24.239.285-36.24,3.438-16.677,15.727-26.795,32.8-27.549,10.794-.478,20.639,1.841,28.45,9.95,6.558,6.81,8.666,15.26,9.063,24.362.05,1.152-.477,1.418-1.5,1.407-3.268-.034-6.538-.073-9.8.016-1.379.038-1.639-.516-1.694-1.757a35.811,35.811,0,0,0-.675-5.978c-2.433-11.315-10.951-17.342-22.932-16.322-12.628,1.074-19.852,8.038-21.683,20.7C972.18,475.832,972.416,480.516,972.307,484.995Z" transform="translate(9927.68 7394.847)" fill="#626263"/><path d="M561.656,485.414c0,10.308.045,20.617-.042,30.925-.016,1.838.394,2.551,2.339,2.391,2.164-.178,4.356.013,6.533-.061,1.217-.041,1.614.413,1.59,1.6q-.088,4.273,0,8.548c.024,1.174-.355,1.627-1.571,1.623q-15.336-.048-30.673,0c-1.158,0-1.641-.311-1.606-1.56.08-2.847.091-5.7,0-8.547-.046-1.384.5-1.714,1.762-1.666,2.093.08,4.206-.14,6.28.066,2.2.218,2.56-.65,2.55-2.658-.082-17.18-.047-34.361-.047-51.541,0-3.436-.1-6.876.042-10.307.069-1.716-.537-2.137-2.129-2.046-2.173.124-4.358-.031-6.535.053-1.315.052-1.994-.194-1.928-1.743.116-2.76.1-5.532,0-8.294-.048-1.389.52-1.662,1.762-1.657q15.211.056,30.422-.006c1.366-.007,1.705.5,1.672,1.759-.072,2.764-.088,5.533,0,8.3.047,1.4-.546,1.693-1.786,1.644-2.009-.08-4.034.119-6.031-.06-2.049-.184-2.692.411-2.666,2.567C561.724,464.965,561.656,475.189,561.656,485.414Z" transform="translate(10036.474 7394.376)" fill="#626263"/><path d="M366.693,554.81c-30.889,12.21-61.831,12.43-93.522.4C304.755,543.08,335.7,542.88,366.693,554.81Z" transform="translate(10104.996 7367.115)" fill="#0079ba"/><path d="M165.761,555.045c-23.742,11.969-74.316,11.683-93.358-.468C103.549,542.878,134.458,543.073,165.761,555.045Z" transform="translate(10156.899 7367.127)" fill="#0079ba"/><path d="M165.635,527.4c-27.645,11.765-62.972,12.845-93.559.46a125.494,125.494,0,0,1,93.559-.46Z" transform="translate(10156.984 7374.198)" fill="#0079ba"/><path d="M273.959,527.584c24.15-11.82,74.738-11.5,92.981.512C337.069,540.247,301.847,539.337,273.959,527.584Z" transform="translate(10104.789 7374.116)" fill="#0079ba"/><path d="M188.837,490.393q-38.679-31.025-45.813-80.147C168.748,430.943,183.826,457.765,188.837,490.393Z" transform="translate(10138.642 7402.206)" fill="#0079ba"/><path d="M212.957,584.565c-5.391,32.84-20.945,59.335-46.78,80.272C164.408,644.211,193.293,594.691,212.957,584.565Z" transform="translate(10132.675 7357.141)" fill="#0079ba"/><path d="M166.181,396.171c25.833,20.932,41.376,47.439,46.777,80.3C193.2,466.178,164.141,416.323,166.181,396.171Z" transform="translate(10132.679 7405.845)" fill="#0079ba"/><path d="M312.928,651.465c-25.659-21.2-40.849-48.018-46.171-80.712C285.039,578.544,314.631,630.169,312.928,651.465Z" transform="translate(10106.65 7360.711)" fill="#0079ba"/><path d="M313.095,409.953c-4.823,32.772-20.042,59.624-45.936,80.351C272.144,457.644,287.334,430.807,313.095,409.953Z" transform="translate(10106.55 7402.282)" fill="#0079ba"/><path d="M188.816,570.662c-4.978,32.646-20.132,59.5-45.879,80.3Q150.064,601.825,188.816,570.662Z" transform="translate(10138.661 7360.735)" fill="#0079ba"/><path d="M289.777,664.65c-25.977-20.557-41.624-47.157-46.665-79.963Q281.894,615.63,289.777,664.65Z" transform="translate(10112.766 7357.109)" fill="#0079ba"/><path d="M243.1,476.289c5.025-32.74,20.7-59.288,46.465-80.191.869,7.026-7.324,30.951-15.3,44.734A119.527,119.527,0,0,1,243.1,476.289Z" transform="translate(10112.767 7405.865)" fill="#0079ba"/><path d="M919.205,626.334c0-2.518.046-4.5-.018-6.481-.038-1.158.311-1.639,1.554-1.622,1.325.017,1.2.825,1.2,1.668,0,6.7.007,13.4-.017,20.1,0,.512.326,1.315-.524,1.443-.69.1-1.832.472-2.029-.334-.431-1.771-.907-.842-1.693-.311a7.513,7.513,0,0,1-11.092-3.45c-2.816-7.051,1.689-13.756,8.7-12.976A6.8,6.8,0,0,1,919.205,626.334Zm.03,6.583c0-3.312-1.211-5.525-3.557-6.25a4.666,4.666,0,0,0-5.383,1.578c-1.826,2.259-1.942,6.914-.224,9.469a4.417,4.417,0,0,0,4.976,2C917.863,639.088,919.232,636.852,919.236,632.918Z" transform="translate(9941.458 7348.437)" fill="#626263"/><path d="M710.675,642.343c-3.772,0-6.643-1.633-7.679-4.537-.213-.6-1.26-1.64.082-2.057.924-.287,2.148-.527,2.688.971.927,2.573,2.958,3.514,5.55,3.351,2.007-.127,3.651-.95,3.982-3.126a3.731,3.731,0,0,0-2.678-4.3c-1.4-.528-2.875-.874-4.3-1.341-3.59-1.172-5.262-3.372-4.848-6.335s2.943-5.064,6.4-5.331c3.845-.3,6.538,1.177,7.681,4.271.261.706,1.038,1.721-.132,2.113-.878.294-2.007.547-2.557-1.08a4.394,4.394,0,0,0-5.726-3.031,3.2,3.2,0,0,0-2.7,2.908,3.15,3.15,0,0,0,1.958,3.454c1.38.577,2.849.94,4.278,1.4,4.2,1.357,6.147,3.842,5.611,7.146C717.728,640.2,714.779,642.347,710.675,642.343Z" transform="translate(9994.025 7348.083)" fill="#626263"/><path d="M876.517,619.594c4.816-.007,7.955,1.949,8.952,5.4.2.686,1.1,1.825-.29,2.247a1.683,1.683,0,0,1-2.419-1.32,5.348,5.348,0,0,0-5.088-4.135,6.227,6.227,0,0,0-6.5,3.374,11.934,11.934,0,0,0,.082,11.764,5.992,5.992,0,0,0,6.1,3.151,5.3,5.3,0,0,0,5.185-4c.4-1.4,1.2-1.851,2.359-1.472,1.588.518.549,1.674.26,2.452-2.056,5.537-10.315,7.143-15.027,2.964-5.036-4.466-4.594-14.563.813-18.547A9.158,9.158,0,0,1,876.517,619.594Z" transform="translate(9951.574 7348.086)" fill="#626263"/><path d="M787.756,626.207c0-2.294.039-4.3-.017-6.31-.03-1.1.191-1.693,1.493-1.662s1.208.822,1.208,1.672c0,6.527.02,13.055-.029,19.582-.006.744.613,1.887-1,2.066-1.48.165-1.794-.633-1.693-1.974-3.738,3.11-8.247,3.146-11.026.288-3.051-3.136-3.146-9.621-.19-12.973C779.229,623.8,783.886,623.44,787.756,626.207Zm.038,6.413a6.989,6.989,0,0,0-.534-2.883,4.647,4.647,0,0,0-4.277-3.3,4.542,4.542,0,0,0-4.8,2.866,9.115,9.115,0,0,0,.159,7.967,4.3,4.3,0,0,0,4.229,2.573,4.637,4.637,0,0,0,4.389-2.782A11.734,11.734,0,0,0,787.793,632.62Z" transform="translate(9975.427 7348.436)" fill="#626263"/><path d="M968.346,639.275c-3.7,3.38-8.289,3.476-11.113.7-3.179-3.123-3.294-9.767-.227-13.158a8.009,8.009,0,0,1,11.182-.4c0-2.4.022-4.5-.01-6.607-.015-.948.1-1.575,1.319-1.577,1.159,0,1.393.491,1.388,1.512-.028,6.781-.018,13.564-.009,20.347,0,.81-.01,1.415-1.142,1.467C968.367,641.621,967.915,641.075,968.346,639.275Zm-.151-6.756a18.5,18.5,0,0,0-.378-2.286,4.9,4.9,0,0,0-9.409-.49,9.291,9.291,0,0,0,.248,7.294,4.383,4.383,0,0,0,4.332,2.807,4.639,4.639,0,0,0,4.5-2.995A11.175,11.175,0,0,0,968.2,632.52Z" transform="translate(9928.779 7348.437)" fill="#626263"/><path d="M809.674,636.063c-1.507,0-3.018.067-4.521-.02-1.236-.071-1.694.343-1.39,1.569.512,2.061,1.377,3.833,3.73,4.212,2.226.357,4.031-.358,4.856-2.569a1.734,1.734,0,0,1,2.626-.991c1.076.57.18,1.626-.219,2.326-1.481,2.6-3.89,3.566-6.761,3.487a6.655,6.655,0,0,1-6.3-3.815,10.774,10.774,0,0,1-.1-9.464,7.663,7.663,0,0,1,9.249-4.129c3.15.931,5.288,4.523,4.98,8.153-.085,1-.448,1.281-1.373,1.254C812.857,636.027,811.265,636.061,809.674,636.063ZM808,633.968c1.088,0,2.181-.069,3.262.018,1.384.111,1.805-.423,1.49-1.745-.416-1.749-1.271-3.15-3.088-3.6a4.286,4.286,0,0,0-4.544,1.4c-.828.974-1.678,2.232-1.266,3.383s1.9.352,2.894.531A7.127,7.127,0,0,0,808,633.968Z" transform="translate(9968.654 7346.342)" fill="#626263"/><path d="M842.307,636.064c-1.509,0-3.023.085-4.525-.021-1.527-.108-1.635.56-1.313,1.789.552,2.1,1.552,3.748,3.9,4.037a3.97,3.97,0,0,0,4.632-2.6,1.73,1.73,0,0,1,2.607-1.011c1.134.56.186,1.593-.185,2.273-1.437,2.642-3.856,3.6-6.726,3.543a6.694,6.694,0,0,1-6.449-4,10.846,10.846,0,0,1-.143-9.022,7.7,7.7,0,0,1,9.116-4.472c3.265.8,5.542,4.455,5.228,8.218-.082.985-.423,1.3-1.364,1.273C845.493,636.028,843.9,636.063,842.307,636.064Zm-1.442-2.093a7.261,7.261,0,0,0,1.5-.017c1.065-.23,2.814.738,3.088-.565a4.167,4.167,0,0,0-2.033-4.276,4.493,4.493,0,0,0-6.24,1.776c-1.447,2.512-1.137,3.077,1.685,3.082Z" transform="translate(9960.215 7346.34)" fill="#626263"/><path d="M945.846,637.025c0,1.673.022,3.346-.013,5.018-.011.52.408,1.331-.4,1.479-.732.134-1.794.585-2.2-.469-.436-1.13-.627-.587-1.235-.125-2.262,1.722-6.255,1.55-8.172-.232a4.943,4.943,0,0,1-.658-6.223c1.507-2.273,3.979-2.471,6.373-2.958,1.131-.23,3.073,1.219,3.327-1.235.177-1.707-.216-3.276-2.207-3.655-1.855-.353-3.716-.1-4.266,2.028a1.73,1.73,0,0,1-2.654,1.275c-1.161-.5-.291-1.608.055-2.346,1.206-2.576,4.2-3.7,7.811-3.044,2.553.466,3.789,1.891,4.026,4.969.141,1.829.025,3.678.025,5.519Zm-2.963.392c.04-1.834.04-1.834-1.686-1.885-3.54-.1-5.746,1.172-5.779,3.421-.033,2.142,1.355,2.927,3.237,3C941.2,642.055,942.823,640.261,942.883,637.417Z" transform="translate(9934.575 7346.337)" fill="#626263"/><path d="M727.552,631.816a6.732,6.732,0,0,1,10.439-4.522,4.12,4.12,0,0,1,1.878,3.381c.144,3.931.249,7.862.375,11.793.017.519.054,1.09-.673,1.06-.7-.028-1.752.432-2.007-.458-.407-1.421-.624-.651-1.287-.185a6.726,6.726,0,0,1-7.136.412c-1.871-.9-2.5-2.58-2.373-4.6a4.644,4.644,0,0,1,2.832-4.122,14.861,14.861,0,0,1,5.108-1.146c.921-.087,2.578.908,2.565-1.245-.012-1.816-.406-3.4-2.562-3.679-1.687-.219-3.388.036-3.909,1.889C730.277,632.266,729.14,632.12,727.552,631.816Zm7.419,3.658c-3.43.1-5.233,1.366-5.184,3.6s1.577,2.8,3.4,2.815c2.548.019,4.111-2.082,4.127-4.986C737.321,634.759,735.811,635.709,734.971,635.474Z" transform="translate(9987.729 7346.399)" fill="#626263"/><path d="M675.622,626.451c5.165,0,8.409,3.45,8.351,8.876s-3.363,8.842-8.5,8.786c-4.954-.053-8.228-3.547-8.253-8.805C667.2,629.92,670.49,626.448,675.622,626.451Zm5.271,8.831c.008-4.828-3.066-7.753-6.846-6.512-2.35.772-3.771,3.185-3.794,6.441-.022,3.215,1.4,5.678,3.734,6.466C677.8,642.963,680.885,640.107,680.893,635.282Z" transform="translate(10003.118 7346.312)" fill="#626263"/><path d="M994.741,637.084c0,1.673.015,3.346-.008,5.019-.008.523.368,1.3-.461,1.444-.678.12-1.749.5-2.03-.335-.6-1.788-1.039-.381-1.552-.042-2,1.329-5.791,1.279-7.612-.2a4.678,4.678,0,0,1-1.487-5.427,4.823,4.823,0,0,1,3.052-3.1,15.552,15.552,0,0,1,4.9-.939c.761-.05,2.057.678,2.2-.822s.208-3.073-1.549-3.873a3.436,3.436,0,0,0-4.909,1.953c-.535,1.8-1.81,1.508-2.709,1.15-.992-.4-.248-1.45.058-2.147,1.16-2.648,3.98-3.813,7.7-3.244,2.684.41,4.04,1.931,4.255,5.041.127,1.832.023,3.68.023,5.52Zm-5.58-1.536c-2.9.053-4.833,1.3-4.828,3.46.005,2.138,1.409,2.895,3.283,2.957,2.616.087,4.113-1.835,4.213-4.821C991.9,635.16,990.672,635.555,989.161,635.548Z" transform="translate(9921.924 7346.33)" fill="#626263"/><path d="M762.3,641.441c-2.6,2.809-5.37,3.435-8.244,2.322-2.681-1.038-3.444-3.211-3.452-5.825-.01-3.1.024-6.2-.024-9.3-.016-1.074.128-1.719,1.457-1.718,1.355,0,1.442.7,1.432,1.746-.03,3.015.012,6.03.015,9.043,0,2.283.816,3.918,3.318,4.229a4.138,4.138,0,0,0,4.711-3.231c1.017-3.27.437-6.654.6-9.986.033-.658-.4-1.611.811-1.75,1.241-.142,2.05.029,2.015,1.659-.095,4.436-.031,8.876-.034,13.314,0,.906.2,1.817-1.292,1.864C762.154,643.86,761.845,643.23,762.3,641.441Z" transform="translate(9981.571 7346.19)" fill="#626263"/><path d="M644.448,635.587c0,2.262.012,4.525-.01,6.788,0,.536.208,1.309-.672,1.349-.7.032-1.84.433-2.018-.4-.387-1.813-.874-.6-1.461-.224a7.132,7.132,0,0,1-7.185.432c-2.29-1.042-2.894-3.088-2.9-5.411,0-3.185.022-6.369-.039-9.553-.023-1.15.285-1.656,1.54-1.642,1.3.015,1.238.765,1.234,1.648-.012,2.933-.045,5.867.022,8.8s1.071,4.246,3.3,4.558c2.446.342,4.134-.848,4.89-3.633.824-3.039.351-6.167.438-9.255.032-1.129-.14-2.172,1.591-2.117s1.235,1.235,1.254,2.125C644.478,631.229,644.449,633.409,644.448,635.587Z" transform="translate(10012.7 7346.19)" fill="#626263"/><path d="M551.579,628.836a7.171,7.171,0,0,1,7.991-2.016c2.952,1.123,3.477,3.558,3.451,6.32q-.04,4.4.01,8.793c.013,1.037-.06,1.731-1.427,1.725-1.344-.006-1.464-.667-1.454-1.721.029-3.1-.021-6.2-.008-9.3.01-2.091-.748-3.645-2.956-4.01a4.115,4.115,0,0,0-4.718,2.492,13.914,13.914,0,0,0-.967,6.391c.02,1.507-.008,3.015.008,4.522.009.872.079,1.622-1.232,1.62-1.22,0-1.583-.421-1.569-1.6.051-4.354,0-8.71.039-13.065.009-.869-.526-2.053,1.189-2.218S551.532,627.716,551.579,628.836Z" transform="translate(10033.77 7346.342)" fill="#626263"/><path d="M1008.608,628.6c2.359-2.6,5.122-2.641,7.953-1.67,2.768.95,3.217,3.36,3.222,5.916.007,2.926.023,5.852,0,8.778-.008.925.365,2.016-1.335,2.046-1.653.03-1.409-.96-1.41-1.946,0-2.926.008-5.852-.013-8.778-.016-2.213-.7-3.969-3.21-4.345a4.288,4.288,0,0,0-4.8,3.146c-1.115,3.162-.486,6.463-.654,9.7-.051,1,.415,2.215-1.443,2.216-1.91,0-1.37-1.28-1.379-2.232-.037-4.1-.058-8.193.02-12.288.015-.813-.732-2.1.982-2.341C1007.906,626.608,1008.441,627.326,1008.608,628.6Z" transform="translate(9915.689 7346.339)" fill="#626263"/><path d="M584.7,631.369c-1.751.394-2.812.389-3.6-1.222a3.228,3.228,0,0,0-4.547-1.195,2.313,2.313,0,0,0,.341,4.073c1.4.705,2.991,1.034,4.455,1.633,2.3.942,3.7,2.527,3.409,5.208-.291,2.652-2.179,3.6-4.42,4.082-3.415.729-6.575-.568-7.732-3.154-.294-.658-1.156-1.637.045-2.071.793-.287,1.98-.542,2.5.858.775,2.081,2.478,2.549,4.487,2.247a2.378,2.378,0,0,0,.78-4.606c-1.062-.474-2.19-.8-3.3-1.177-3.2-1.081-4.564-2.583-4.487-4.958a4.739,4.739,0,0,1,3.969-4.53c3.155-.686,5.994.318,7.261,2.628A17.729,17.729,0,0,1,584.7,631.369Z" transform="translate(10027.73 7346.339)" fill="#626263"/><path d="M617.08,634.112c0-1.423,0-2.847,0-4.27,0-.99.219-2.124-1.411-1.991-.679.056-.795-.438-.79-.991,0-.527.04-1.088.741-1.033,1.573.124,1.463-.916,1.47-1.957.007-.947-.314-2.022,1.357-2.066,1.881-.051,1.5,1.2,1.423,2.183-.112,1.422.372,2.013,1.817,1.82.71-.1,1.3.015,1.308,1.01.009.973-.529,1.166-1.267,1.045-1.705-.279-1.9.628-1.854,2.024.085,2.761.036,5.526.028,8.29,0,1.3.24,2.377,1.878,2.347.694-.013,1.068.237,1.1,1.01.039.949-.557,1.062-1.261,1.182-2.792.477-4.349-.71-4.5-3.578-.089-1.67-.016-3.348-.016-5.023Z" transform="translate(10016.652 7347.513)" fill="#626263"/><path d="M655.694,634.138c0-1.505-.015-3.011.005-4.517.013-.971.048-1.9-1.369-1.767-.67.061-.817-.412-.809-.973.008-.514,0-1.1.714-1.053,1.823.121,1.436-1.18,1.453-2.2.015-.953-.074-1.784,1.358-1.828,1.568-.048,1.572.838,1.487,1.9-.1,1.3-.041,2.384,1.765,2.1.685-.108,1.313-.029,1.333.98.019.955-.479,1.2-1.24,1.072-1.67-.271-1.928.573-1.88,2,.093,2.757.037,5.52.028,8.281-.005,1.281.172,2.393,1.832,2.377.662-.007,1.107.175,1.136.974.033.923-.532,1.083-1.246,1.215-2.747.508-4.374-.715-4.531-3.553-.092-1.668-.016-3.346-.016-5.019Z" transform="translate(10006.662 7347.515)" fill="#626263"/><path d="M593.63,634.266c0-1.5-.018-3.006.006-4.509.017-1.039.129-2.076-1.458-1.906-.6.065-.882-.327-.876-.937.005-.534.071-1.133.719-1.073,1.94.177,1.625-1.152,1.6-2.281-.019-.977-.046-1.771,1.379-1.757,1.473.015,1.379.911,1.3,1.825-.131,1.49.169,2.469,1.986,2.177.787-.126,1.258.2,1.231,1.108-.03,1.009-.722,1.042-1.388.944-1.74-.255-1.872.729-1.834,2.081.069,2.5,0,5.01.032,7.515.022,1.5-.118,3.173,2.2,3.1.693-.021.719.541.74,1.057.026.581-.236.859-.807,1.052a3.472,3.472,0,0,1-4.8-3.137c-.082-1.75-.016-3.507-.016-5.26Z" transform="translate(10022.75 7347.514)" fill="#626263"/><path d="M541.363,630.938c0,3.094,0,6.189,0,9.283,0,.883.257,1.833-1.266,1.835-1.359,0-1.45-.662-1.445-1.708.025-6.105.013-12.211.012-18.317,0-.925-.13-1.815,1.313-1.864,1.668-.056,1.384,1.022,1.386,1.987C541.368,625.084,541.363,628.011,541.363,630.938Z" transform="translate(10036.361 7347.937)" fill="#626263"/><path d="M609.785,635.245c0,2.259-.01,4.517,0,6.776.006.944.136,1.807-1.334,1.791-1.278-.014-1.531-.538-1.52-1.66q.061-6.775,0-13.55c-.011-1.124.233-1.667,1.509-1.676,1.433-.01,1.361.825,1.351,1.794C609.77,630.9,609.785,633.071,609.785,635.245Z" transform="translate(10018.709 7346.189)" fill="#626263"/><path d="M1033.675,635.471c0,2.259-.025,4.519.011,6.778.015.955-.085,1.562-1.315,1.563s-1.567-.461-1.554-1.625q.071-6.9,0-13.806c-.012-1.126.44-1.424,1.482-1.442,1.133-.019,1.418.461,1.393,1.5C1033.635,630.784,1033.675,633.128,1033.675,635.471Z" transform="translate(9909.123 7346.187)" fill="#626263"/><path d="M900.359,635.727q0,3.127,0,6.256c0,.9.2,1.814-1.286,1.84-1.384.024-1.421-.671-1.413-1.7.029-4.5.021-9.009.006-13.513,0-.9,0-1.593,1.26-1.613,1.353-.023,1.461.683,1.445,1.721C900.335,631.055,900.358,633.391,900.359,635.727Z" transform="translate(9943.547 7346.17)" fill="#626263"/><path d="M235.375,533.231c-.512-5.656-.994-11.315-1.56-16.965-.14-1.4.172-2.448,1.662-2.449,1.372,0,1.654,1,1.538,2.3-.508,5.739-.928,11.485-1.38,17.229Z" transform="translate(10115.175 7375.431)" fill="#0079ba"/><path d="M235.731,548.981c.517,5.732,1,11.467,1.573,17.194.133,1.343-.334,2.271-1.6,2.291-1.292.019-1.7-.883-1.582-2.247.509-5.739.9-11.489,1.327-17.235Z" transform="translate(10115.096 7366.339)" fill="#0079ba"/><path d="M224.777,548.221c-4.349,3.043-8.712,6.069-13.039,9.145a1.416,1.416,0,0,1-2.144-.4c-.572-.689-.728-1.687.186-2.143,4.876-2.429,9.8-4.761,14.708-7.127Z" transform="translate(10121.55 7366.671)" fill="#0079ba"/><path d="M242.362,537.125c4.409-3.088,8.505-5.911,12.544-8.815a1.549,1.549,0,0,1,2.513.435,1.48,1.48,0,0,1-.739,2.265c-4.286,2.02-8.554,4.08-12.842,6.1C243.57,537.234,243.19,537.125,242.362,537.125Z" transform="translate(10112.96 7371.802)" fill="#0079ba"/><path d="M224.43,537.794c-4.843-2.327-9.693-4.64-14.525-6.991a1.335,1.335,0,0,1-.4-2.127,1.483,1.483,0,0,1,2.324-.464c4.258,3.044,8.561,6.025,12.847,9.03Z" transform="translate(10121.543 7371.807)" fill="#0079ba"/><path d="M242.513,548.739c1.629-.373,2.562.5,3.583.97,3.4,1.573,6.735,3.277,10.141,4.829,1.194.544,1.883,1.305,1.237,2.469-.727,1.311-1.766,1.027-2.9.2C250.667,554.39,246.7,551.666,242.513,548.739Z" transform="translate(10112.918 7366.426)" fill="#0079ba"/><path d="M1032.127,619.624a1.624,1.624,0,0,1,1.783,1.708,1.6,1.6,0,0,1-1.717,1.713,1.579,1.579,0,0,1-1.7-1.718A1.558,1.558,0,0,1,1032.127,619.624Z" transform="translate(9909.206 7348.078)" fill="#626263"/><path d="M610.071,621.419c-.238,1.037-.828,1.721-1.881,1.624a1.58,1.58,0,0,1-1.563-1.834,1.538,1.538,0,0,1,1.8-1.562C609.552,619.7,609.941,620.474,610.071,621.419Z" transform="translate(10018.789 7348.072)" fill="#626263"/><path d="M899.081,623.1c-1.143-.086-1.853-.632-1.912-1.666a1.555,1.555,0,0,1,1.634-1.763,1.536,1.536,0,0,1,1.791,1.582C900.663,622.383,899.923,622.828,899.081,623.1Z" transform="translate(9943.674 7348.066)" fill="#626263"/><path d="M763.187,620.291a10.929,10.929,0,0,1-.969,1.375c-.774.782-1.079,2.236-2.617,1.965a.466.466,0,0,1-.277-.776c.813-1.124.882-3.084,3.017-2.762C762.5,620.116,762.662,620.166,763.187,620.291Z" transform="translate(9979.34 7347.964)" fill="#626263"/><path d="M206.056,734.707c-2.981-1.145-6.172-.969-9.26-1.41a154.816,154.816,0,0,1-30.814-7.768,2.822,2.822,0,0,1-2.219-3.042c-.1-5.444-.082-10.881.085-16.323.056-1.853.558-2.014,2.188-1.31a127.953,127.953,0,0,0,62.246,10.168,123.227,123.227,0,0,0,39.707-9.967c2.081-.917,2.678-.569,2.775,1.651.229,5.276.179,10.543.058,15.819a2.894,2.894,0,0,1-2.287,3.035,148.346,148.346,0,0,1-39.555,8.673c-.467.036-1.031-.128-1.3.475Z" transform="translate(10133.296 7326.142)" fill="#004d93"/><path d="M41.092,474.95c1.006-4.281,1.879-8.6,3.041-12.836a125.682,125.682,0,0,1,42.045-65.1c.322-.266.653-.524,1-.757a2.8,2.8,0,0,1,.706-.161,94.048,94.048,0,0,1-3.039,14.893,124.19,124.19,0,0,1-41.668,64.171c-.631.519-1.163,1.232-2.084,1.3Z" transform="translate(10164.994 7405.866)" fill="#004d93"/><path d="M41.092,584.509c.671-.066,1.066.417,1.507.782,24.825,20.506,39.819,46.685,45.209,78.4a7.011,7.011,0,0,1,.007,1.09c-.946.018-1.447-.713-2.031-1.2-24.053-20-38.7-45.464-44.189-76.231-.085-.475.029-1.025-.5-1.331Z" transform="translate(10164.994 7357.157)" fill="#004d93"/><path d="M165.891,385.732c34.867-14.843,69.165-14.829,103.816-.039-3.741,3.223-7.258,6.034-10.529,9.107-22.333,20.987-35.777,46.622-40.111,77-.152,1.065.148,3.034-1.135,2.958-1.693-.1-1.1-2.116-1.281-3.341q-7.2-47.687-43.377-79.571C171.022,389.867,168.654,388.015,165.891,385.732Z" transform="translate(10132.728 7411.423)" fill="#004d93"/><path d="M270.081,668.307c-34.9,14.845-69.18,14.864-103.466.249-.026-1.125.742-1.326,1.222-1.705q40.848-32.279,48.92-83.7c.039-.248.031-.5.089-.747.273-1.137-.322-3.072,1.259-3.1,1.335-.025.994,1.893,1.149,2.953,4.934,33.919,20.835,61.59,47.312,83.259C267.581,666.341,268.619,667.145,270.081,668.307Z" transform="translate(10132.543 7358.503)" fill="#004d93"/><path d="M367,495.842a134.134,134.134,0,0,0-33.932-8.723,128.772,128.772,0,0,0-63.778,8.635c-1.026.416-2.491,1.664-3.161.556-.869-1.437,1.125-1.932,1.995-2.623q40.348-32.083,48.4-82.978c.065-.413.143-.825.224-1.236.1-.489.2-.976.37-1.786.995,4.363,1.8,8.438,2.872,12.442,1.1,4.115,2.3,8.221,3.745,12.227a146.408,146.408,0,0,0,42.367,61.9c.434.377.8.829,1.2,1.246A2.324,2.324,0,0,0,367,495.842Z" transform="translate(10106.871 7402.868)" fill="#004d93"/><path d="M367.291,562.464A186.056,186.056,0,0,0,349.035,581.1a147.4,147.4,0,0,0-31.584,68,7.373,7.373,0,0,1-.231.713,12.294,12.294,0,0,1-.889-4.052c-.238-1.4-.523-2.8-.8-4.191Q305.9,593.966,267.682,564c-.2-.155-.409-.293-.6-.459-.544-.479-1.555-.893-1.132-1.719.492-.964,1.42-.4,2.178-.085a127.094,127.094,0,0,0,23.2,7.226,128.567,128.567,0,0,0,73.3-6c.78-.3,1.578-.554,2.367-.829A2.91,2.91,0,0,0,367.291,562.464Z" transform="translate(10106.888 7363.158)" fill="#004d93"/><path d="M119.413,650a149.747,149.747,0,0,0-17.466-48.047A145.28,145.28,0,0,0,69.165,562.63c1.071-.592,1.945.055,2.816.381q48.2,18.076,95.971-1.062a9.539,9.539,0,0,1,1.651-.568c.281-.056.827.088.879.257a1.45,1.45,0,0,1-.1,1.152,7.158,7.158,0,0,1-1.344,1.115C140.9,585.9,124.728,614.771,119.413,650Z" transform="translate(10157.734 7363.137)" fill="#004d93"/><path d="M69.418,495.419A165.539,165.539,0,0,0,91.412,472.05,146.084,146.084,0,0,0,118.922,410c.1-.559.282-1.1.607-2.355.7,3.91,1.183,7.133,1.868,10.312s1.473,6.356,2.382,9.485A127.512,127.512,0,0,0,168.993,494c.33.257.671.5,1.005.751.5.374.93.855.613,1.478-.343.674-1.012.448-1.55.244-1.172-.444-2.314-.97-3.486-1.415q-46.835-17.781-93.684-.026c-.7.265-1.422.491-2.133.735C69.646,495.65,69.534,495.534,69.418,495.419Z" transform="translate(10157.67 7402.88)" fill="#004d93"/><path d="M270.407,374.294a155.366,155.366,0,0,0-18.1-6.489q-43.827-11.947-85.738,5.546c-2.606,1.091-2.6,1.108-2.729-1.733-.237-5.276-.2-10.55-.047-15.828a2.518,2.518,0,0,1,1.882-2.745,147.3,147.3,0,0,1,61.38-8.96,150.653,150.653,0,0,1,41.1,8.66,3.456,3.456,0,0,1,2.7,3.785C270.889,362.38,271.188,368.233,270.407,374.294Z" transform="translate(10133.304 7419.396)" fill="#004d93"/><path d="M368.286,396.171c25.869,20.716,41.214,47.469,46.291,80.14C388.614,455.693,373.286,428.91,368.286,396.171Z" transform="translate(10080.404 7405.845)" fill="#004d93"/><path d="M368.125,665.062c.94-25.271,26.046-68.637,46.409-80.373C411.281,613.86,393.444,646.125,368.125,665.062Z" transform="translate(10080.444 7357.109)" fill="#004d93"/><path d="M402.257,562.4c.219-.032.589-.153.632-.081.183.312-.131.336-.334.406A2.934,2.934,0,0,1,402.257,562.4Z" transform="translate(10071.622 7362.898)" fill="#004d93"/><path d="M402.549,526.123c.207.067.511.105.329.409-.045.074-.411-.044-.629-.072A2.3,2.3,0,0,1,402.549,526.123Z" transform="translate(10071.622 7372.25)" fill="#004d93"/><path d="M69.62,526.374c-.238.193-.485.351-.735.044a5.186,5.186,0,0,1,.4-.4C69.4,526.138,69.508,526.255,69.62,526.374Z" transform="translate(10157.809 7372.275)" fill="#004d93"/></g></svg>